<svg width="40" height="40" viewBox="0 0 40 40" fill="none" xmlns="http://www.w3.org/2000/svg">
<path fill-rule="evenodd" clip-rule="evenodd" d="M0 20C0 8.95431 8.95431 0 20 0C31.0457 0 40 8.95431 40 20C40 31.0457 31.0457 40 20 40C8.95431 40 0 31.0457 0 20ZM12.1184 32.1056C11.824 32.1056 11.6512 32.0288 11.6 31.8752C11.6 31.7088 12.1504 30.9664 13.2512 29.648C14.352 28.3296 15.5616 26.9024 16.88 25.3664C18.1984 23.8176 19.408 22.2496 20.5088 20.6624C21.6096 19.0624 22.16 17.936 22.16 17.2832C22.16 16.8736 21.9488 16.6688 21.5264 16.6688C20.8352 16.6688 20.1056 16.8544 19.3376 17.2256C18.6673 17.5384 18.0311 17.939 17.4291 18.4273C17.6336 18.3687 17.8548 18.2903 18.0928 18.192C18.6944 17.9616 19.2 17.7248 19.6096 17.4816L20.224 17.1168C20.3264 17.0528 20.4032 17.0208 20.4544 17.0208C20.5056 17.0208 20.5312 17.0464 20.5312 17.0976C20.5312 17.136 20.4864 17.1936 20.3968 17.2704C20.2176 17.3856 19.9872 17.5328 19.7056 17.712C19.424 17.8912 18.9312 18.128 18.2272 18.4224C17.7445 18.633 17.3189 18.7715 16.9506 18.8377C16.3614 19.3645 15.7875 19.9471 15.2288 20.5856C14.6016 21.3024 14.0704 22.0128 13.6352 22.7168C12.6496 24.2528 12.1568 25.3728 12.1568 26.0768C12.1568 26.448 12.3104 26.6336 12.6176 26.6336C13.04 26.6336 13.7248 26.2752 14.672 25.5584C15.6192 24.8416 16.4576 24.1248 17.1872 23.408L18.2816 22.352C18.3072 22.3264 18.3456 22.3136 18.3968 22.3136C18.4608 22.3136 18.4928 22.3328 18.4928 22.3712L18.4544 22.448L17.9744 22.928C17.7824 23.1328 17.4112 23.4912 16.8608 24.0032C16.3104 24.5024 15.792 24.9504 15.3056 25.3472C14.832 25.7312 14.32 26.0832 13.7696 26.4032C13.2192 26.7232 12.784 26.8832 12.464 26.8832C12.0032 26.8832 11.7728 26.608 11.7728 26.0576C11.7728 25.4944 11.9328 24.816 12.2528 24.0224C12.5856 23.216 13.0592 22.3776 13.6736 21.5072C14.3008 20.6368 14.9984 19.8176 15.7664 19.0496C15.8452 18.9721 15.9251 18.896 16.0062 18.8212C15.759 18.7523 15.5393 18.6257 15.3472 18.4416C15.04 18.16 14.8096 17.7696 14.656 17.2704C14.3616 16.3744 14.2144 15.3184 14.2144 14.1024C14.2144 12.8736 14.2848 11.9072 14.4256 11.2032C14.5792 10.4992 14.7136 10.1472 14.8288 10.1472C14.8544 10.1472 14.8672 10.1792 14.8672 10.2432L14.7904 12.2976C14.9184 12.464 15.1232 12.5472 15.4048 12.5472C16.0704 12.5472 17.0624 12.0416 18.3808 11.0304C19.712 10.0064 20.9088 8.8544 21.9712 7.5744C23.0464 6.2816 23.584 5.296 23.584 4.6176C23.584 4.0928 23.232 3.8304 22.528 3.8304C21.5296 3.8304 20.32 4.2016 18.8992 4.944C17.4784 5.6864 16.0704 6.64 14.6752 7.8048C13.28 8.9568 11.968 10.1856 10.7392 11.4912C9.5232 12.784 8.5312 14.0576 7.7632 15.312C7.008 16.5536 6.6304 17.5648 6.6304 18.3456C6.6304 18.448 6.6752 18.4992 6.7648 18.4992C7.136 18.4992 7.9488 17.7568 9.2032 16.272C10.4576 14.7744 11.6608 13.1936 12.8128 11.5296C13.9776 9.8528 14.6688 8.7328 14.8864 8.1696C14.9248 8.08 14.9632 8.0352 15.0016 8.0352C15.1424 8.0352 15.2128 8.2144 15.2128 8.5728C15.2128 8.9184 15.1808 9.136 15.1168 9.2256C14.976 9.6096 14.6944 10.128 14.272 10.7808C13.2864 12.3296 11.8848 14.0448 10.0672 15.9264C8.2624 17.808 7.1424 18.7488 6.7072 18.7488C6.5024 18.7488 6.4 18.6144 6.4 18.3456C6.4 17.3472 7.0016 16.0032 8.2048 14.3136C9.408 12.6112 10.8416 10.9792 12.5056 9.4176C14.1824 7.8432 15.968 6.48 17.8624 5.328C19.7696 4.176 21.3504 3.6 22.6048 3.6C23.68 3.6 24.2176 3.984 24.2176 4.752C24.2176 5.3536 23.8848 6.128 23.2192 7.0752C22.5536 8.0096 21.7536 8.9056 20.8192 9.7632C19.8848 10.6208 18.8672 11.3568 17.7664 11.9712C16.6656 12.5856 15.7184 12.8928 14.9248 12.8928C14.8608 12.8928 14.8096 12.8864 14.7712 12.8736C14.8881 16.3342 15.4161 18.2144 16.3553 18.5142C16.9889 17.982 17.6886 17.5268 18.4544 17.1488C19.4656 16.6496 20.4704 16.4 21.4688 16.4C21.7248 16.4 21.9744 16.496 22.2176 16.688C22.4608 16.8672 22.5824 17.1488 22.5824 17.5328C22.5824 17.904 22.4416 18.3968 22.16 19.0112C21.8912 19.6256 21.4816 20.3424 20.9312 21.1616C20.3808 21.9808 19.8688 22.7232 19.3952 23.3888C18.9344 24.0416 18.3136 24.8416 17.5328 25.7888C16.7648 26.736 16.2272 27.3952 15.92 27.7664C15.6128 28.1248 15.1584 28.6624 14.5568 29.3792C14.5696 29.392 14.6272 29.36 14.7296 29.2832C20.1824 24.3424 23.2608 21.5584 23.9648 20.9312C24.6688 20.304 25.0464 19.9584 25.0976 19.8944L25.232 19.76C25.3344 19.6576 25.4624 19.6064 25.616 19.6064C25.7824 19.6064 25.8656 19.6832 25.8656 19.8368C25.8656 20.2208 25.3024 21.1936 24.176 22.7552C23.0624 24.3168 21.9488 25.808 20.8352 27.2288C19.7216 28.6496 19.1648 29.3856 19.1648 29.4368L19.184 29.456C19.9648 28.7776 21.5648 27.312 23.984 25.0592C26.416 22.7936 28.5344 20.8416 30.3392 19.2032C32.1568 17.5648 33.168 16.7456 33.3728 16.7456C33.5136 16.7456 33.584 16.8352 33.584 17.0144C33.584 17.36 33.2896 17.9744 32.7008 18.8576C32.1248 19.7408 31.088 21.1296 29.5904 23.024C29.5264 23.1008 28.4896 24.3424 26.48 26.7488C22.0512 32.0352 19.8368 35.088 19.8368 35.9072C19.8368 35.9584 19.8752 35.984 19.952 35.984C20.0416 35.984 20.3616 35.8368 20.912 35.5424C21.4752 35.2608 21.8656 35.024 22.0832 34.832C22.3008 34.64 22.4288 34.544 22.4672 34.544C22.5056 34.544 22.5248 34.5696 22.5248 34.6208C22.5248 34.6848 22.512 34.7296 22.4864 34.7552C22.3456 34.9344 21.9104 35.2288 21.1808 35.6384C20.464 36.048 20.0096 36.2528 19.8176 36.2528C19.6256 36.2528 19.5296 36.1696 19.5296 36.0032C19.5296 35.1968 20.2144 33.776 21.584 31.7408C23.7344 28.528 26.3392 25.232 29.3984 21.8528C29.7824 21.4176 30.4928 20.56 31.5296 19.28C32.5664 18 33.0848 17.3088 33.0848 17.2064C33.0848 17.1808 33.0784 17.168 33.0656 17.168C32.9888 17.168 30.6208 19.3056 25.9616 23.5808C21.3152 27.856 18.3072 30.6464 16.9376 31.952C16.784 32.1056 16.6368 32.1824 16.496 32.1824C16.1248 32.1824 15.9392 32.1376 15.9392 32.048C15.9392 31.9584 16.0288 31.8048 16.208 31.5872C16.3872 31.3568 17.3472 30.1792 19.088 28.0544C23.184 23.0496 25.232 20.4256 25.232 20.1824L25.2128 20.1632C25.0976 20.2144 23.4208 21.712 20.1824 24.656C15.4464 28.9312 12.7584 31.4144 12.1184 32.1056Z" fill="currentColor"/>
</svg>
