<svg width="120" height="35" viewBox="0 0 120 35" fill="none" xmlns="http://www.w3.org/2000/svg">
<path d="M0.976 16H0.28C0.12 16 0.04 15.904 0.04 15.712V0.855999C0.04 0.664 0.12 0.568 0.28 0.568H5.752C6.792 0.568 7.616 0.872 8.224 1.48C8.832 2.088 9.136 2.92 9.136 3.976V6.256C9.136 7.152 8.904 7.888 8.44 8.464C7.992 9.04 7.376 9.408 6.592 9.568V9.664L9.448 15.712C9.544 15.904 9.488 16 9.28 16H8.536C8.328 16 8.184 15.904 8.104 15.712L5.272 9.664H1.48C1.32 9.664 1.24 9.736 1.24 9.88V15.712C1.24 15.904 1.152 16 0.976 16ZM1.48 8.632H5.632C6.368 8.632 6.936 8.432 7.336 8.032C7.736 7.616 7.936 7.032 7.936 6.28V4.024C7.936 3.272 7.736 2.688 7.336 2.272C6.936 1.856 6.368 1.648 5.632 1.648H1.48C1.32 1.648 1.24 1.72 1.24 1.864V8.416C1.24 8.56 1.32 8.632 1.48 8.632ZM21.2123 0.568H21.8843C22.0603 0.568 22.1483 0.656 22.1483 0.831999V12.592C22.1483 13.648 21.8443 14.48 21.2363 15.088C20.6443 15.696 19.8283 16 18.7883 16H16.1003C15.0603 16 14.2363 15.696 13.6283 15.088C13.0363 14.48 12.7403 13.648 12.7403 12.592V0.855999C12.7403 0.664 12.8203 0.568 12.9803 0.568H13.6763C13.8523 0.568 13.9403 0.664 13.9403 0.855999V12.544C13.9403 13.296 14.1323 13.88 14.5163 14.296C14.9003 14.712 15.4603 14.92 16.1963 14.92H18.6683C19.4043 14.92 19.9643 14.72 20.3483 14.32C20.7483 13.904 20.9483 13.312 20.9483 12.544V0.855999C20.9483 0.664 21.0363 0.568 21.2123 0.568ZM27.5425 14.92H32.1505C32.8865 14.92 33.4465 14.72 33.8305 14.32C34.2305 13.904 34.4305 13.312 34.4305 12.544V4.024C34.4305 3.256 34.2305 2.672 33.8305 2.272C33.4465 1.856 32.8865 1.648 32.1505 1.648H27.5425C27.3825 1.648 27.3025 1.72 27.3025 1.864V14.704C27.3025 14.848 27.3825 14.92 27.5425 14.92ZM26.1025 15.712V0.855999C26.1025 0.664 26.1825 0.568 26.3425 0.568H32.2705C33.3105 0.568 34.1265 0.872 34.7185 1.48C35.3265 2.088 35.6305 2.92 35.6305 3.976V12.592C35.6305 13.648 35.3265 14.48 34.7185 15.088C34.1265 15.696 33.3105 16 32.2705 16H26.3425C26.1825 16 26.1025 15.904 26.1025 15.712ZM40.3979 16H39.7019C39.5419 16 39.4619 15.904 39.4619 15.712V0.855999C39.4619 0.664 39.5419 0.568 39.7019 0.568H40.3979C40.5739 0.568 40.6619 0.664 40.6619 0.855999V7.408C40.6619 7.552 40.7419 7.624 40.9019 7.624H47.6219C47.7819 7.624 47.8619 7.552 47.8619 7.408V0.855999C47.8619 0.664 47.9419 0.568 48.1019 0.568H48.7979C48.9739 0.568 49.0619 0.664 49.0619 0.855999V15.712C49.0619 15.904 48.9739 16 48.7979 16H48.1019C47.9419 16 47.8619 15.904 47.8619 15.712V8.92C47.8619 8.776 47.7819 8.704 47.6219 8.704H40.9019C40.7419 8.704 40.6619 8.776 40.6619 8.92V15.712C40.6619 15.904 40.5739 16 40.3979 16ZM54.4694 0.855999V15.712C54.4694 15.904 54.3814 16 54.2054 16H53.5094C53.3494 16 53.2694 15.904 53.2694 15.712V0.855999C53.2694 0.664 53.3494 0.568 53.5094 0.568H54.2054C54.3814 0.568 54.4694 0.664 54.4694 0.855999ZM11.128 19.568H12.424C12.584 19.568 12.664 19.664 12.664 19.856V34.712C12.664 34.904 12.584 35 12.424 35H11.728C11.552 35 11.464 34.904 11.464 34.712V21.416H11.368L7.12 31.376C7.024 31.552 6.904 31.64 6.76 31.64H5.968C5.808 31.64 5.696 31.552 5.632 31.376L1.312 21.392H1.216V34.712C1.216 34.904 1.136 35 0.976 35H0.28C0.12 35 0.04 34.904 0.04 34.712V19.856C0.04 19.664 0.12 19.568 0.28 19.568H1.576C1.688 19.568 1.76 19.616 1.792 19.712L6.304 30.248H6.4L10.912 19.712C10.944 19.616 11.016 19.568 11.128 19.568ZM24.4069 35H16.9909C16.8309 35 16.7509 34.904 16.7509 34.712V19.856C16.7509 19.664 16.8309 19.568 16.9909 19.568H24.4069C24.5989 19.568 24.6949 19.656 24.6949 19.832V20.384C24.6949 20.56 24.5989 20.648 24.4069 20.648H18.1909C18.0309 20.648 17.9509 20.72 17.9509 20.864V26.384C17.9509 26.528 18.0309 26.6 18.1909 26.6H23.7349C23.9109 26.6 23.9989 26.688 23.9989 26.864V27.416C23.9989 27.592 23.9109 27.68 23.7349 27.68H18.1909C18.0309 27.68 17.9509 27.752 17.9509 27.896V33.704C17.9509 33.848 18.0309 33.92 18.1909 33.92H24.4069C24.5989 33.92 24.6949 34.008 24.6949 34.184V34.736C24.6949 34.912 24.5989 35 24.4069 35ZM29.7456 33.92H34.3536C35.0896 33.92 35.6496 33.72 36.0336 33.32C36.4336 32.904 36.6336 32.312 36.6336 31.544V23.024C36.6336 22.256 36.4336 21.672 36.0336 21.272C35.6496 20.856 35.0896 20.648 34.3536 20.648H29.7456C29.5856 20.648 29.5056 20.72 29.5056 20.864V33.704C29.5056 33.848 29.5856 33.92 29.7456 33.92ZM28.3056 34.712V19.856C28.3056 19.664 28.3856 19.568 28.5456 19.568H34.4736C35.5136 19.568 36.3296 19.872 36.9216 20.48C37.5296 21.088 37.8336 21.92 37.8336 22.976V31.592C37.8336 32.648 37.5296 33.48 36.9216 34.088C36.3296 34.696 35.5136 35 34.4736 35H28.5456C28.3856 35 28.3056 34.904 28.3056 34.712ZM42.985 19.856V34.712C42.985 34.904 42.897 35 42.721 35H42.025C41.865 35 41.785 34.904 41.785 34.712V19.856C41.785 19.664 41.865 19.568 42.025 19.568H42.721C42.897 19.568 42.985 19.664 42.985 19.856ZM46.7883 35H46.0443C45.8683 35 45.8123 34.904 45.8763 34.712L50.6523 19.856C50.7003 19.664 50.8123 19.568 50.9883 19.568H52.1163C52.2763 19.568 52.3883 19.664 52.4523 19.856L57.2283 34.712C57.2763 34.904 57.2203 35 57.0603 35H56.2923C56.1323 35 56.0283 34.904 55.9803 34.712L54.6843 30.872H48.3963L47.1003 34.712C47.0363 34.904 46.9323 35 46.7883 35ZM51.4922 20.888L48.7323 29.792H54.3723L51.5883 20.888H51.4922ZM59.8971 31.592V30.728C59.8971 30.552 59.9851 30.464 60.1611 30.464H60.8571C61.0331 30.464 61.1211 30.552 61.1211 30.728V31.52C61.1211 33.12 61.8971 33.92 63.4491 33.92H65.9451C67.4971 33.92 68.2731 33.112 68.2731 31.496V30.488C68.2731 29.784 67.9851 29.232 67.4091 28.832C66.8331 28.432 66.1371 28.144 65.3211 27.968C64.5051 27.792 63.6811 27.608 62.8491 27.416C62.0331 27.224 61.3371 26.872 60.7611 26.36C60.1851 25.848 59.8971 25.16 59.8971 24.296V22.976C59.8971 21.92 60.2011 21.088 60.8091 20.48C61.4171 19.872 62.2411 19.568 63.2811 19.568H66.0651C67.1051 19.568 67.9291 19.872 68.5371 20.48C69.1451 21.088 69.4491 21.92 69.4491 22.976V23.648C69.4491 23.824 69.3611 23.912 69.1851 23.912H68.4891C68.3131 23.912 68.2251 23.824 68.2251 23.648V23.048C68.2251 21.448 67.4491 20.648 65.8971 20.648H63.4251C61.8891 20.648 61.1211 21.464 61.1211 23.096V24.296C61.1211 25.4 62.1051 26.144 64.0731 26.528C64.8891 26.688 65.7051 26.872 66.5211 27.08C67.3531 27.288 68.0571 27.664 68.6331 28.208C69.2091 28.752 69.4971 29.488 69.4971 30.416V31.592C69.4971 32.648 69.1931 33.48 68.5851 34.088C67.9771 34.696 67.1531 35 66.1131 35H63.2811C62.2411 35 61.4171 34.696 60.8091 34.088C60.2011 33.48 59.8971 32.648 59.8971 31.592ZM76.8297 35H76.1337C75.9577 35 75.8697 34.904 75.8697 34.712V20.864C75.8697 20.72 75.7897 20.648 75.6297 20.648H72.1497C71.9577 20.648 71.8617 20.56 71.8617 20.384V19.832C71.8617 19.656 71.9577 19.568 72.1497 19.568H80.7897C80.9817 19.568 81.0777 19.656 81.0777 19.832V20.384C81.0777 20.56 80.9817 20.648 80.7897 20.648H77.3097C77.1497 20.648 77.0697 20.72 77.0697 20.864V34.712C77.0697 34.904 76.9897 35 76.8297 35ZM83.1398 35H82.3958C82.2198 35 82.1638 34.904 82.2278 34.712L87.0038 19.856C87.0518 19.664 87.1638 19.568 87.3398 19.568H88.4678C88.6278 19.568 88.7398 19.664 88.8038 19.856L93.5798 34.712C93.6278 34.904 93.5718 35 93.4118 35H92.6438C92.4838 35 92.3798 34.904 92.3318 34.712L91.0358 30.872H84.7478L83.4518 34.712C83.3878 34.904 83.2838 35 83.1398 35ZM87.8438 20.888L85.0838 29.792H90.7238L87.9398 20.888H87.8438ZM97.2807 35H96.5847C96.4247 35 96.3447 34.904 96.3447 34.712V19.856C96.3447 19.664 96.4247 19.568 96.5847 19.568H102.057C103.097 19.568 103.921 19.872 104.529 20.48C105.137 21.088 105.441 21.92 105.441 22.976V25.256C105.441 26.152 105.209 26.888 104.745 27.464C104.297 28.04 103.681 28.408 102.897 28.568V28.664L105.753 34.712C105.849 34.904 105.793 35 105.585 35H104.841C104.633 35 104.489 34.904 104.409 34.712L101.577 28.664H97.7847C97.6247 28.664 97.5447 28.736 97.5447 28.88V34.712C97.5447 34.904 97.4567 35 97.2807 35ZM97.7847 27.632H101.937C102.673 27.632 103.241 27.432 103.641 27.032C104.041 26.616 104.241 26.032 104.241 25.28V23.024C104.241 22.272 104.041 21.688 103.641 21.272C103.241 20.856 102.673 20.648 101.937 20.648H97.7847C97.6247 20.648 97.5447 20.72 97.5447 20.864V27.416C97.5447 27.56 97.6247 27.632 97.7847 27.632ZM108.757 35H108.013C107.837 35 107.781 34.904 107.845 34.712L112.621 19.856C112.669 19.664 112.781 19.568 112.957 19.568H114.085C114.245 19.568 114.357 19.664 114.421 19.856L119.197 34.712C119.245 34.904 119.189 35 119.029 35H118.261C118.101 35 117.997 34.904 117.949 34.712L116.653 30.872H110.365L109.069 34.712C109.005 34.904 108.901 35 108.757 35ZM113.461 20.888L110.701 29.792H116.341L113.557 20.888H113.461Z" fill="currentColor"/>
</svg>
